<?xml version="1.0" encoding="utf-8"?>
<!-- Generator: Adobe Illustrator 22.1.0, SVG Export Plug-In . SVG Version: 6.00 Build 0)  -->
<svg version="1.1" xmlns="http://www.w3.org/2000/svg" xmlns:xlink="http://www.w3.org/1999/xlink" x="0px" y="0px"
	 viewBox="0 0 1920 1080" style="enable-background:new 0 0 1920 1080;" xml:space="preserve">
<style type="text/css">
	.st0{fill:none;stroke:#000000;stroke-width:16.5;stroke-linecap:round;stroke-linejoin:round;stroke-miterlimit:10;}
</style>
<g id="H1">
	<path d="M773,286.4v230c0,4.6-3.7,8.3-8.3,8.3c-4.6,0-8.3-3.7-8.3-8.3V409.8H601v106.6c0,4.6-3.7,8.3-8.3,8.3
		c-4.6,0-8.3-3.7-8.3-8.3v-230c0-4.6,3.7-8.3,8.3-8.3c4.5,0,8.3,3.7,8.3,8.3v106.9h155.5V286.4c0-4.6,3.7-8.3,8.3-8.3
		C769.3,278.1,773,281.8,773,286.4z"/>
</g>
<g id="A2">
	<path d="M997.2,513.6l-85.7-230.1c-1.2-3.2-4.3-5.4-7.7-5.4c0,0,0,0,0,0c-3.4,0-6.5,2.1-7.7,5.4l-86.3,230.1
		c-1.6,4.3,0.6,9,4.8,10.6c1,0.3,1.9,0.5,2.9,0.5c3.3,0,6.5-2,7.7-5.4l41.1-109.7l74.5-0.1l40.9,109.7c1.6,4.3,6.3,6.4,10.6,4.8
		C996.7,522.6,998.8,517.9,997.2,513.6z M872.5,393.2l31.2-83.3l31,83.2L872.5,393.2z"/>
</g>
<g id="R3_1_">
	<path d="M1213.5,524.8c-2.5,0-5-1.1-6.6-3.3l-86-115c-1.9-2.5-2.2-5.8-0.8-8.6c1.4-2.8,4.3-4.6,7.4-4.6c53.6,0,78-25.5,78-49.3
		s-24.4-49.3-78-49.3h-77.8v221.8c0,4.6-3.7,8.3-8.3,8.3s-8.3-3.7-8.3-8.3v-230c0-4.6,3.7-8.3,8.3-8.3h86c28.4,0,52.5,6.8,69.6,19.6
		c15.8,11.9,24.9,28.7,24.9,46.1s-9.1,34.3-24.9,46.1c-13.8,10.4-32.2,16.8-53.7,18.9l76.7,102.6c2.7,3.6,2,8.8-1.7,11.5
		C1217,524.2,1215.2,524.8,1213.5,524.8z"/>
</g>
<g id="A4">
	<path d="M1446.2,513.6l-85.7-230.1c-1.2-3.2-4.3-5.4-7.7-5.4c0,0,0,0,0,0c-3.4,0-6.5,2.1-7.7,5.4l-86.3,230.1
		c-1.6,4.3,0.6,9,4.8,10.6c1,0.3,1.9,0.5,2.9,0.5c3.3,0,6.5-2,7.7-5.4l41.1-109.7l74.6-0.1l40.9,109.7c1.6,4.3,6.3,6.4,10.6,4.8
		C1445.7,522.6,1447.8,517.9,1446.2,513.6z M1321.5,393.2l31.2-83.3l31,83.2L1321.5,393.2z"/>
</g>
<g id="L5">
	<polyline class="st0" points="1491.2,286.4 1491.2,516.4 1662.8,516.4 	"/>
</g>
<g id="D6">
	<g>
		<path d="M1715.8,524.6c-4.6,0-8.3-3.7-8.3-8.3v-230c0-4.6,3.7-8.3,8.3-8.3c54.9,0,101.1,13,133.8,37.6
			c29.8,22.5,46.2,52.9,46.2,85.7s-16.4,63.2-46.2,85.7C1816.9,511.6,1770.6,524.6,1715.8,524.6z M1724,294.8V508
			c47.6-1.2,87.4-13,115.6-34.2c25.6-19.3,39.7-45,39.7-72.5s-14.1-53.2-39.7-72.5C1811.4,307.7,1771.6,296,1724,294.8z"/>
	</g>
</g>
<g id="R7">
	<path d="M764.5,800.8c-2.5,0-5-1.1-6.6-3.3l-86-115c-1.9-2.5-2.2-5.8-0.8-8.6s4.3-4.6,7.4-4.6c53.6,0,78-25.5,78-49.3
		s-24.4-49.3-78-49.3h-77.8v221.8c0,4.6-3.7,8.3-8.3,8.3s-8.3-3.7-8.3-8.3v-230c0-4.6,3.7-8.3,8.3-8.3h86c28.4,0,52.5,6.8,69.6,19.6
		c15.8,11.8,24.9,28.7,24.9,46.1s-9.1,34.3-24.9,46.1c-13.8,10.4-32.2,16.8-53.7,18.9l76.7,102.6c2.7,3.6,2,8.8-1.7,11.5
		C768,800.2,766.2,800.8,764.5,800.8z"/>
</g>
<g id="E8">
	<g>
		<path d="M989.1,800.7h-172c-4.6,0-8.3-3.7-8.3-8.3s3.7-8.3,8.3-8.3h172c4.6,0,8.3,3.7,8.3,8.3S993.7,800.7,989.1,800.7z"/>
		<path d="M989.1,570.7h-172c-4.6,0-8.3-3.7-8.3-8.3s3.7-8.3,8.3-8.3h172c4.6,0,8.3,3.7,8.3,8.3S993.7,570.7,989.1,570.7z"/>
		<path d="M966.1,685.7h-126c-4.6,0-8.3-3.7-8.3-8.3s3.7-8.3,8.3-8.3h126c4.6,0,8.3,3.7,8.3,8.3S970.7,685.7,966.1,685.7z"/>
	</g>
</g>
<g id="V9">
	<path d="M1127.5,800.7c-3.4,0-6.5-2.1-7.7-5.4l-86-230c-1.6-4.3,0.6-9,4.8-10.6c4.3-1.6,9,0.6,10.6,4.8l78.3,209.3l78.3-209.3
		c1.6-4.3,6.4-6.4,10.6-4.8c4.3,1.6,6.4,6.3,4.8,10.6l-86,230C1134,798.5,1130.9,800.7,1127.5,800.7z"/>
</g>
<g id="E10">
	<g>
		<path d="M1438.3,800.7h-172c-4.6,0-8.3-3.7-8.3-8.3s3.7-8.3,8.3-8.3h172c4.6,0,8.3,3.7,8.3,8.3S1442.9,800.7,1438.3,800.7z"/>
		<path d="M1438.3,570.7h-172c-4.6,0-8.3-3.7-8.3-8.3s3.7-8.3,8.3-8.3h172c4.6,0,8.3,3.7,8.3,8.3S1442.9,570.7,1438.3,570.7z"/>
		<path d="M1415.3,685.7h-126c-4.6,0-8.3-3.7-8.3-8.3s3.7-8.3,8.3-8.3h126c4.6,0,8.3,3.7,8.3,8.3S1419.9,685.7,1415.3,685.7z"/>
	</g>
</g>
<g id="R11">
	<path d="M1663.2,800.8c-2.5,0-5-1.1-6.6-3.3l-86-115c-1.9-2.5-2.2-5.8-0.8-8.6c1.4-2.8,4.3-4.6,7.4-4.6c53.6,0,78-25.5,78-49.3
		s-24.4-49.3-78-49.3h-77.8v221.8c0,4.6-3.7,8.3-8.3,8.3s-8.3-3.7-8.3-8.3v-230c0-4.6,3.7-8.3,8.3-8.3h86c28.4,0,52.5,6.8,69.6,19.6
		c15.8,11.8,24.9,28.7,24.9,46.1s-9.1,34.3-24.9,46.1c-13.8,10.4-32.2,16.8-53.7,18.9l76.7,102.6c2.7,3.6,2,8.8-1.7,11.5
		C1666.6,800.2,1664.9,800.8,1663.2,800.8z"/>
</g>
<g id="Y12new">
	<path d="M1894.1,567.4l-84.4,112.8v112.3c0,4.6-3.7,8.3-8.3,8.3s-8.3-3.7-8.3-8.3V680.3l-84.4-112.8c-2.7-3.7-2-8.8,1.7-11.5
		c3.6-2.7,8.8-2,11.5,1.7l79.4,106.2l79.4-106.2c2.7-3.7,7.9-4.4,11.5-1.7C1896.1,558.6,1896.8,563.8,1894.1,567.4z"/>
</g>
<g id="Logo">
	<path d="M268.4,630.6c-17.8-7.6-34.8-16.8-50.8-27.4C199,591,181.7,576.8,166,561c-18.3-18.4-34.5-38.9-48-61.2
		c-26.9-44.1-43.5-95.2-46.8-149.8c26.2-46,67.9-82,118-101c-19.1,31.7-32.2,67.4-37.8,105.5c-2,13.8-3.1,27.9-3.1,42.3
		c0,61,19,117.6,51.5,164.1c5.6,8,11.6,15.7,17.9,23.1C232.7,601.6,249.7,617.2,268.4,630.6z"/>
	<path d="M306.5,634.9c-84.7-45.8-142.3-135.5-142.3-238.5c0-24.1,3.1-47.4,9-69.7c33.1-35.6,78.2-59.8,128.9-66.3
		c-46.7,47.7-75.5,113-75.5,185.1c0,30,5,58.9,14.2,85.8c3.5,10.2,7.6,20.1,12.3,29.7C266.6,588.7,284.7,613.7,306.5,634.9z"/>
	<path d="M217.7,623.5v177.2h-74.5V562.1C164.9,585.9,190,606.6,217.7,623.5z"/>
	<path d="M535.1,278.2v522.5h-64.8V561H272.4c-10.7-20.1-18.7-41.9-23.5-64.8h221.4v-218H535.1z"/>
</g>
</svg>
